# xmcd
#
# Track frame offsets:
#	150
#	24330
#	43292
#	58145
#	69220
#	87822
#	96822
#	106577
#	112929
#	120879
#	133840
#	151595
#	176522
#	202552
#	218505
#	243512
#
# Disc length: 3668 seconds
#
# Revision: 3
# Processed by: cddbd v1.5.1PL2 Copyright (c) Steve Scherf et al.
# Submitted via: audiograbber 1.83.01
#
DISCID=bc0e5210
DTITLE=Soundtracks - Highlander: The Original Scores
DYEAR=1995
DGENRE=Soundtrack
TTITLE0=Michael Kamen - The Highlander Theme (Highlander I)
TTITLE1=Queen - Rachael's Suprise - Who Wants To Live Forever (Highlander I)
TTITLE2=Michael Kamen - The Quickening (Highlander I)
TTITLE3=Michael Kamen - Swordfight at 34th Street (Highlander I)
TTITLE4=Michael Kamen - Under the Garden - The Prize (Highlander I)
TTITLE5=Stewart Copeland - Finger Dip (Highlander II)
TTITLE6=Stewart Copeland - Rebel Troops (Highlander II)
TTITLE7=Stewart Copeland - Dam Raid (Highlander II)
TTITLE8=Stewart Copeland - White Cloud (Highlander II)
TTITLE9=Stewart Copeland - Mac Absorbs Reno (Highlander II)
TTITLE10=Stewart Copeland - Shield Shatters - Alan Dies (Highlander II)
TTITLE11=J. Peter Robinson - Shrine Fight - Shrine Fight (Highlander III)
TTITLE12=J. Peter Robinson - Massacre (The Beginning)(Highlander III)
TTITLE13=J. Peter Robinson - Laundry Room - Quickening 2 (Highlander III)
TTITLE14=J. Peter Robinson - Revolution (Highlander III)
TTITLE15=J. Peter Robinson - Final Battle - Quickening 3 - Epilogue (Highlander
TTITLE15=III)
EXTD=
EXTT0=
EXTT1=
EXTT2=
EXTT3=
EXTT4=
EXTT5=
EXTT6=
EXTT7=
EXTT8=
EXTT9=
EXTT10=
EXTT11=
EXTT12=
EXTT13=
EXTT14=
EXTT15=
PLAYORDER=
